<svg width="512" height="512" viewBox="0 0 512 512" fill="none" xmlns="http://www.w3.org/2000/svg" role="img" aria-label="IvoirEdu">
  <!-- Fond carré arrondi, couleur de marque #3b82f6 (primary), comme l'icône de la sidebar/topbar -->
  <rect width="512" height="512" rx="112" fill="#3b82f6"/>
  <!-- GraduationCap lucide (viewBox 24x24) centré et mis à l'échelle. Trait blanc, strokeWidth proportionnel à l'app. -->
  <g transform="translate(106 116) scale(12.5)"
     fill="none" stroke="#ffffff" stroke-width="2"
     stroke-linecap="round" stroke-linejoin="round">
    <path d="M21.42 10.922a1 1 0 0 0-.019-1.838L12.83 5.18a2 2 0 0 0-1.66 0L2.6 9.08a1 1 0 0 0 0 1.832l8.57 3.908a2 2 0 0 0 1.66 0z"/>
    <path d="M22 10v6"/>
    <path d="M6 12.5V16a6 3 0 0 0 12 0v-3.5"/>
  </g>
  <!-- Petit trait blanc sobre sous le chapeau : accent de marque app scolaire -->
  <rect x="216" y="396" width="80" height="14" rx="7" fill="#ffffff"/>
</svg>
